<svg id="visual" viewBox="0 0 900 600" width="900" height="600" xmlns="http://www.w3.org/2000/svg" xmlns:xlink="http://www.w3.org/1999/xlink" version="1.1"><path d="M0 399L21.5 399.7C43 400.3 86 401.7 128.8 413.2C171.7 424.7 214.3 446.3 257.2 446.3C300 446.3 343 424.7 385.8 401C428.7 377.3 471.3 351.7 514.2 347.2C557 342.7 600 359.3 642.8 361.7C685.7 364 728.3 352 771.2 339.5C814 327 857 314 878.5 307.5L900 301L900 601L878.5 601C857 601 814 601 771.2 601C728.3 601 685.7 601 642.8 601C600 601 557 601 514.2 601C471.3 601 428.7 601 385.8 601C343 601 300 601 257.2 601C214.3 601 171.7 601 128.8 601C86 601 43 601 21.5 601L0 601Z" fill="#6fa4cb" stroke-linecap="round" stroke-linejoin="miter"></path></svg>