<svg id="visual" viewBox="0 0 900 600" width="900" height="600" xmlns="http://www.w3.org/2000/svg" xmlns:xlink="http://www.w3.org/1999/xlink" version="1.1"><path d="M0 287L21.5 294.7C43 302.3 86 317.7 128.8 319C171.7 320.3 214.3 307.7 257.2 327.2C300 346.7 343 398.3 385.8 409.5C428.7 420.7 471.3 391.3 514.2 369.3C557 347.3 600 332.7 642.8 341.5C685.7 350.3 728.3 382.7 771.2 382.2C814 381.7 857 348.3 878.5 331.7L900 315L900 601L878.5 601C857 601 814 601 771.2 601C728.3 601 685.7 601 642.8 601C600 601 557 601 514.2 601C471.3 601 428.7 601 385.8 601C343 601 300 601 257.2 601C214.3 601 171.7 601 128.8 601C86 601 43 601 21.5 601L0 601Z" fill="#6fa4cb" stroke-linecap="round" stroke-linejoin="miter"></path></svg>