<svg id="visual" viewBox="0 0 900 600" width="900" height="600" xmlns="http://www.w3.org/2000/svg" xmlns:xlink="http://www.w3.org/1999/xlink" version="1.1"><path d="M0 487L21.5 459.8C43 432.7 86 378.3 128.8 362.3C171.7 346.3 214.3 368.7 257.2 365.8C300 363 343 335 385.8 336.2C428.7 337.3 471.3 367.7 514.2 370C557 372.3 600 346.7 642.8 362C685.7 377.3 728.3 433.7 771.2 444.2C814 454.7 857 419.3 878.5 401.7L900 384L900 601L878.5 601C857 601 814 601 771.2 601C728.3 601 685.7 601 642.8 601C600 601 557 601 514.2 601C471.3 601 428.7 601 385.8 601C343 601 300 601 257.2 601C214.3 601 171.7 601 128.8 601C86 601 43 601 21.5 601L0 601Z" fill="#6fa4cb" stroke-linecap="round" stroke-linejoin="miter"></path></svg>