<svg id="visual" viewBox="0 0 900 600" width="900" height="600" xmlns="http://www.w3.org/2000/svg" xmlns:xlink="http://www.w3.org/1999/xlink" version="1.1"><path d="M0 477L21.5 466.2C43 455.3 86 433.7 128.8 409C171.7 384.3 214.3 356.7 257.2 343.8C300 331 343 333 385.8 360.3C428.7 387.7 471.3 440.3 514.2 449.8C557 459.3 600 425.7 642.8 397.2C685.7 368.7 728.3 345.3 771.2 355.2C814 365 857 408 878.5 429.5L900 451L900 601L878.5 601C857 601 814 601 771.2 601C728.3 601 685.7 601 642.8 601C600 601 557 601 514.2 601C471.3 601 428.7 601 385.8 601C343 601 300 601 257.2 601C214.3 601 171.7 601 128.8 601C86 601 43 601 21.5 601L0 601Z" fill="#6fa4cb" stroke-linecap="round" stroke-linejoin="miter"></path></svg>