<svg id="visual" viewBox="0 0 900 600" width="900" height="600" xmlns="http://www.w3.org/2000/svg" xmlns:xlink="http://www.w3.org/1999/xlink" version="1.1"><path d="M0 321L21.5 315.2C43 309.3 86 297.7 128.8 325.3C171.7 353 214.3 420 257.2 420.5C300 421 343 355 385.8 340.5C428.7 326 471.3 363 514.2 395.8C557 428.7 600 457.3 642.8 452.8C685.7 448.3 728.3 410.7 771.2 396.3C814 382 857 391 878.5 395.5L900 400L900 601L878.5 601C857 601 814 601 771.2 601C728.3 601 685.7 601 642.8 601C600 601 557 601 514.2 601C471.3 601 428.7 601 385.8 601C343 601 300 601 257.2 601C214.3 601 171.7 601 128.8 601C86 601 43 601 21.5 601L0 601Z" fill="#6fa4cb" stroke-linecap="round" stroke-linejoin="miter"></path></svg>