<svg id="visual" viewBox="0 0 900 600" width="900" height="600" xmlns="http://www.w3.org/2000/svg" xmlns:xlink="http://www.w3.org/1999/xlink" version="1.1"><path d="M0 440L21.5 423.8C43 407.7 86 375.3 128.8 364.5C171.7 353.7 214.3 364.3 257.2 379.3C300 394.3 343 413.7 385.8 403.7C428.7 393.7 471.3 354.3 514.2 346.3C557 338.3 600 361.7 642.8 359.7C685.7 357.7 728.3 330.3 771.2 347.3C814 364.3 857 425.7 878.5 456.3L900 487L900 601L878.5 601C857 601 814 601 771.2 601C728.3 601 685.7 601 642.8 601C600 601 557 601 514.2 601C471.3 601 428.7 601 385.8 601C343 601 300 601 257.2 601C214.3 601 171.7 601 128.8 601C86 601 43 601 21.5 601L0 601Z" fill="#6fa4cb" stroke-linecap="round" stroke-linejoin="miter"></path></svg>