<svg id="visual" viewBox="0 0 900 600" width="900" height="600" xmlns="http://www.w3.org/2000/svg" xmlns:xlink="http://www.w3.org/1999/xlink" version="1.1"><path d="M0 291L21.5 312.7C43 334.3 86 377.7 128.8 397.5C171.7 417.3 214.3 413.7 257.2 393.3C300 373 343 336 385.8 325.8C428.7 315.7 471.3 332.3 514.2 341.5C557 350.7 600 352.3 642.8 371.3C685.7 390.3 728.3 426.7 771.2 440.8C814 455 857 447 878.5 443L900 439L900 601L878.5 601C857 601 814 601 771.2 601C728.3 601 685.7 601 642.8 601C600 601 557 601 514.2 601C471.3 601 428.7 601 385.8 601C343 601 300 601 257.2 601C214.3 601 171.7 601 128.8 601C86 601 43 601 21.5 601L0 601Z" fill="#6fa4cb" stroke-linecap="round" stroke-linejoin="miter"></path></svg>