<svg id="visual" viewBox="0 0 900 600" width="900" height="600" xmlns="http://www.w3.org/2000/svg" xmlns:xlink="http://www.w3.org/1999/xlink" version="1.1"><path d="M0 373L21.5 380C43 387 86 401 128.8 396.7C171.7 392.3 214.3 369.7 257.2 378.8C300 388 343 429 385.8 436C428.7 443 471.3 416 514.2 391C557 366 600 343 642.8 350C685.7 357 728.3 394 771.2 397.8C814 401.7 857 372.3 878.5 357.7L900 343L900 601L878.5 601C857 601 814 601 771.2 601C728.3 601 685.7 601 642.8 601C600 601 557 601 514.2 601C471.3 601 428.7 601 385.8 601C343 601 300 601 257.2 601C214.3 601 171.7 601 128.8 601C86 601 43 601 21.5 601L0 601Z" fill="#6fa4cb" stroke-linecap="round" stroke-linejoin="miter"></path></svg>