<?xml version="1.0" encoding="UTF-8"?>
<svg id="Layer_1" xmlns="http://www.w3.org/2000/svg" viewBox="0 0 1768.74 757.37">
  <path d="M1581.99,239.27s-92.02,6.3-86.35-73.12c5.67-79.42,51.68-81.94,50.42-39.08-1.26,42.86-6.93,74.81,35.93,69.86s34.04-153.06,34.04-153.06c0,0,6.93-78.79,56.73-25.21,49.79,53.58-22.06,301.91-22.06,301.91,0,0,81.94-51.68,75.64-139.93s49.79-59.25,41.6-3.78-37.88,174.83-135.86,181.96l-44.68,168.78s-45.11,9.16-58.34-39.37c-13.24-48.53,52.95-248.97,52.95-248.97Z" style="fill: #4b5b00;"/>
  <path d="M97.38,728.61s-105-172,18-209,41,203,41,203c0,0-34,43-59,6Z" style="fill: #4b5b00;"/>
  <path d="M167.38,634.61s33-61,88-24-55,138-99,112,11-88,11-88Z" style="fill: #4b5b00;"/>
  <path d="M76.38,652.61S5.38,617.61.38,658.61s40,112.74,76,96.37c36-16.37,61,2.58,0-97.89" style="fill: #4b5b00;"/>
  <path d="M1539.43,507.94c34.94-124.24,68.98-249.15,90.5-376.51,3.38-21.24,6.27-42.58,7.76-64.04,1.03-15.4,1.52-30.95-.6-46.28-1.01-5.94-2.23-11.96-5.03-17.36,3.15,5.96,4.58,12.7,5.58,19.32,2.08,14.69,1.77,29.6,1.02,44.38-2.75,43.03-10.24,85.59-18.58,127.83-21.43,105.52-49.46,209.64-80.66,312.66h0Z"/>
  <path d="M1548.26,515.74S1696.92,148.37,1638.9,3.74c0,0,101.62,87.19-83.2,516.28" style="fill: none; stroke: #000; stroke-miterlimit: 10;"/>
  <path d="M1548.26,507.94c-31.38-58.82,67.98-239.72,83.8-499.27" style="fill: none; stroke: #000; stroke-miterlimit: 10;"/>
  <path d="M1573.25,525.7S1745.88,81.11,1652.88,9.11" style="fill: none; stroke: #000; stroke-miterlimit: 10;"/>
  <path d="M1522.31,101.3c-7.88,44.29-3.63,103.41,44.43,122.39,10.13,4.12,20.97,6.11,31.86,6.97-10.95-.24-22.03-1.88-32.32-5.79-49.22-17.86-54.51-79.3-43.97-123.57h0Z"/>
  <path d="M1529.28,101.3s-21.96,107.5,69.32,123.16" style="fill: none; stroke: #000; stroke-miterlimit: 10;"/>
  <path d="M1512.35,110.08s-36.28,126.12,84.63,127.58" style="fill: none; stroke: #000; stroke-miterlimit: 10;"/>
  <path d="M1745.16,124.49c.54,5.26,1.12,10.52,1.58,15.8.2,3.8.5,10.19.69,13.89.03,3.64-.06,10.3-.07,13.91-.35,6.15-.69,13.73-1.52,19.83-2.02,18.38-6.66,36.77-13.73,53.87-15.1,36.85-43.36,68.3-78.69,86.77-4.7,2.45-9.52,4.68-14.51,6.44,9.8-3.99,18.99-9.33,27.69-15.28,28.23-19.37,50.69-47.02,63.71-78.68,9.78-23.01,14.43-48.11,15.87-72.99.06-4.48.4-11.35.3-15.83-.04-2.74-.2-9.12-.25-11.89,0,0-1.06-15.83-1.06-15.83h0Z"/>
  <path d="M1638.9,346.56c47.08-23.83,85.26-65.19,104.66-114.3,1.24-3.57,2.96-7.88,4.08-11.47.43-1.43,2.54-8.44,2.93-9.71.38-1.34,1.08-4.53,1.45-5.91.52-2.22,1.49-5.67,1.84-7.91.25-1.34,1.67-8.76,1.89-9.98.23-1.49.6-4.54.81-6.04.98-6.17,1.44-14,1.96-20.23.09-2.77.24-9.4.33-12.2.08-4.75-.26-11.52-.31-16.29.29,5.42.74,10.85.84,16.29.01,2.85,0,9.53,0,12.24-.13,2.48-.54,9.63-.7,12.23-.1,2.3-.65,5.78-.87,8.12-.29,2.4-.6,5.77-1.06,8.1-2.89,18.83-8.37,37.4-16.25,54.73-20.48,44.47-57.13,81.75-101.61,102.32h0Z"/>
  <path d="M1640.05,323.47c35.85-15.37,64.78-45.37,80.73-80.77,12.56-27.81,17.24-58.61,16.77-88.98-.06-2.52-.25-8.44-.31-10.98,0,0-1.08-14.62-1.08-14.62.83,6.97,1.75,14.84,2.05,21.91,1.93,31.77-2.6,64.29-15.6,93.49-16.23,35.59-45.74,65.93-82.55,79.95h0Z"/>
  <path d="M64.06,546.79c10.19,2.74,20.02,6.8,29.15,12.08-10.19-2.73-20.01-6.81-29.15-12.08h0Z" style="fill: #fff;"/>
  <path d="M139.69,536.01c7.65-7.27,16.24-13.53,25.51-18.57-7.64,7.27-16.24,13.52-25.51,18.57h0Z" style="fill: #fff;"/>
  <path d="M43.27,604.8c10.19,2.74,20.02,6.8,29.15,12.08-10.19-2.73-20.01-6.81-29.15-12.08h0Z" style="fill: #fff;"/>
  <path d="M106.9,577.02c7.65-7.27,16.24-13.53,25.51-18.57-7.64,7.27-16.24,13.52-25.51,18.57h0Z" style="fill: #fff;"/>
  <path d="M156.26,575.1c7.19,7.72,13.37,16.38,18.32,25.7-7.2-7.72-13.36-16.38-18.32-25.7h0Z" style="fill: #fff;"/>
  <path d="M193.34,617.21c10.34-2.1,20.94-2.87,31.48-2.23-10.34,2.12-20.94,2.86-31.48,2.23h0Z" style="fill: #fff;"/>
  <path d="M63.97,682.97c7.1-7.8,15.22-14.67,24.1-20.37-7.1,7.81-15.22,14.66-24.1,20.37h0Z" style="fill: #fff;"/>
  <path d="M99.79,632c-2.95-10.13-4.58-20.64-4.82-31.19,2.96,10.13,4.57,20.64,4.82,31.19h0Z" style="fill: #fff;"/>
  <path d="M126.65,637.44c8,6.88,15.11,14.78,21.06,23.5-8.01-6.87-15.1-14.79-21.06-23.5h0Z" style="fill: #fff;"/>
  <path d="M180.21,656.71c10.04-3.24,20.49-5.18,31.03-5.72-10.04,3.25-20.5,5.17-31.03,5.72h0Z" style="fill: #fff;"/>
  <path d="M183.27,680.8c10.19,2.74,20.02,6.8,29.15,12.08-10.19-2.73-20.01-6.81-29.15-12.08h0Z" style="fill: #fff;"/>
  <path d="M239.9,675.02c7.65-7.27,16.24-13.53,25.51-18.57-7.64,7.27-16.24,13.52-25.51,18.57h0Z" style="fill: #fff;"/>
  <path d="M127.27,549.8c10.19,2.74,20.02,6.8,29.15,12.08-10.19-2.73-20.01-6.81-29.15-12.08h0Z" style="fill: #fff;"/>
  <path d="M11.9,672.02c7.65-7.27,16.24-13.53,25.51-18.57-7.64,7.27-16.24,13.52-25.51,18.57h0Z" style="fill: #fff;"/>
  <path d="M29.05,706.27c9.17,5.22,17.66,11.62,25.17,19.03-9.18-5.21-17.65-11.62-25.17-19.03h0Z" style="fill: #fff;"/>
  <path d="M85.31,714.92c9.23-5.11,19.12-9.01,29.36-11.56-9.23,5.12-19.13,9-29.36,11.56h0Z" style="fill: #fff;"/>
</svg>