<?xml version="1.0" encoding="UTF-8"?>
<svg id="Layer_1" xmlns="http://www.w3.org/2000/svg" viewBox="0 0 1636.07 732.57">
  <path d="M86.6,443.53S-5.42,449.84.25,370.42c5.67-79.42,51.68-81.94,50.42-39.08-1.26,42.86-6.93,74.81,35.93,69.86s34.04-153.06,34.04-153.06c0,0,6.93-78.79,56.73-25.21,49.79,53.58-22.06,301.91-22.06,301.91,0,0,81.94-51.68,75.64-139.93s49.79-59.25,41.6-3.78c-8.19,55.47-37.88,174.83-135.86,181.96l-44.68,168.78s-45.11,9.16-58.34-39.37c-13.24-48.53,52.95-248.97,52.95-248.97Z" style="fill: #4b5b00;"/>
  <path d="M44.05,712.2c34.94-124.24,68.98-249.15,90.5-376.51,3.38-21.24,6.27-42.58,7.76-64.04,1.03-15.4,1.52-30.95-.6-46.28-1.01-5.94-2.23-11.96-5.03-17.36,3.15,5.96,4.58,12.7,5.58,19.32,2.08,14.69,1.77,29.6,1.02,44.38-2.75,43.03-10.24,85.59-18.58,127.83-21.43,105.52-49.46,209.64-80.66,312.66h0Z"/>
  <path d="M52.88,720s148.66-367.37,90.64-512c0,0,101.62,87.19-83.2,516.28" style="fill: none; stroke: #000; stroke-miterlimit: 10;"/>
  <path d="M52.88,712.2c-31.38-58.82,67.98-239.72,83.8-499.27" style="fill: none; stroke: #000; stroke-miterlimit: 10;"/>
  <path d="M77.87,729.96S250.5,285.38,157.5,213.38" style="fill: none; stroke: #000; stroke-miterlimit: 10;"/>
  <path d="M26.93,305.56c-7.88,44.29-3.63,103.41,44.43,122.39,10.13,4.12,20.97,6.11,31.86,6.97-10.95-.24-22.03-1.88-32.32-5.79-49.22-17.86-54.51-79.3-43.97-123.57h0Z"/>
  <path d="M33.89,305.56s-21.96,107.5,69.32,123.16" style="fill: none; stroke: #000; stroke-miterlimit: 10;"/>
  <path d="M16.96,314.35s-36.28,126.12,84.63,127.58" style="fill: none; stroke: #000; stroke-miterlimit: 10;"/>
  <path d="M249.78,328.75c.54,5.26,1.12,10.52,1.58,15.8.2,3.8.5,10.19.69,13.89.03,3.64-.06,10.3-.07,13.91-.35,6.15-.69,13.73-1.52,19.83-2.02,18.38-6.66,36.77-13.73,53.87-15.1,36.85-43.36,68.3-78.69,86.77-4.7,2.45-9.52,4.68-14.51,6.44,9.8-3.99,18.99-9.33,27.69-15.28,28.23-19.37,50.69-47.02,63.71-78.68,9.78-23.01,14.43-48.11,15.87-72.99.06-4.48.4-11.35.3-15.83-.04-2.74-.2-9.12-.25-11.89,0,0-1.06-15.83-1.06-15.83h0Z"/>
  <path d="M143.52,550.82c47.08-23.83,85.26-65.19,104.66-114.3,1.24-3.57,2.96-7.88,4.08-11.47.43-1.43,2.54-8.44,2.93-9.71.38-1.34,1.08-4.53,1.45-5.91.52-2.22,1.49-5.67,1.84-7.91.25-1.34,1.67-8.76,1.89-9.98.23-1.49.6-4.54.81-6.04.98-6.17,1.44-14,1.96-20.23.09-2.77.24-9.4.33-12.2.08-4.75-.26-11.52-.31-16.29.29,5.42.74,10.85.84,16.29.01,2.85,0,9.53,0,12.24-.13,2.48-.54,9.63-.7,12.23-.1,2.3-.65,5.78-.87,8.12-.29,2.4-.6,5.77-1.06,8.1-2.89,18.83-8.37,37.4-16.25,54.73-20.48,44.47-57.13,81.75-101.61,102.32h0Z"/>
  <path d="M144.67,527.73c35.85-15.37,64.78-45.37,80.73-80.77,12.56-27.81,17.24-58.61,16.77-88.98-.06-2.52-.25-8.44-.31-10.98,0,0-1.08-14.62-1.08-14.62.83,6.97,1.75,14.84,2.05,21.91,1.93,31.77-2.6,64.29-15.6,93.49-16.23,35.59-45.74,65.93-82.55,79.95h0Z"/>
  <g>
    <path d="M1463,212.88s-105-172,18-209,41,203,41,203c0,0-34,43-59,6Z" style="fill: #4b5b00;"/>
    <path d="M1533,118.88s33-61,88-24-55,138-99,112,11-88,11-88Z" style="fill: #4b5b00;"/>
    <path d="M1442,136.88s-71-35-76,6,40,112.74,76,96.37c36-16.37,61,2.58,0-97.89" style="fill: #4b5b00;"/>
    <path d="M1429.68,31.05c10.19,2.74,20.02,6.8,29.15,12.08-10.19-2.73-20.01-6.81-29.15-12.08h0Z" style="fill: #fff;"/>
    <path d="M1505.31,20.27c7.65-7.27,16.24-13.53,25.51-18.57-7.64,7.27-16.24,13.52-25.51,18.57h0Z" style="fill: #fff;"/>
    <path d="M1408.89,89.06c10.19,2.74,20.02,6.8,29.15,12.08-10.19-2.73-20.01-6.81-29.15-12.08h0Z" style="fill: #fff;"/>
    <path d="M1472.52,61.28c7.65-7.27,16.24-13.53,25.51-18.57-7.64,7.27-16.24,13.52-25.51,18.57h0Z" style="fill: #fff;"/>
    <path d="M1521.88,59.36c7.19,7.72,13.37,16.38,18.32,25.7-7.2-7.72-13.36-16.38-18.32-25.7h0Z" style="fill: #fff;"/>
    <path d="M1558.96,101.47c10.34-2.1,20.94-2.87,31.48-2.23-10.34,2.12-20.94,2.86-31.48,2.23h0Z" style="fill: #fff;"/>
    <path d="M1429.59,167.24c7.1-7.8,15.22-14.67,24.1-20.37-7.1,7.81-15.22,14.66-24.1,20.37h0Z" style="fill: #fff;"/>
    <path d="M1465.41,116.26c-2.95-10.13-4.58-20.64-4.82-31.19,2.96,10.13,4.57,20.64,4.82,31.19h0Z" style="fill: #fff;"/>
    <path d="M1492.27,121.7c8,6.88,15.11,14.78,21.06,23.5-8.01-6.87-15.1-14.79-21.06-23.5h0Z" style="fill: #fff;"/>
    <path d="M1545.83,140.97c10.04-3.24,20.49-5.18,31.03-5.72-10.04,3.25-20.5,5.17-31.03,5.72h0Z" style="fill: #fff;"/>
    <path d="M1548.89,165.06c10.19,2.74,20.02,6.8,29.15,12.08-10.19-2.73-20.01-6.81-29.15-12.08h0Z" style="fill: #fff;"/>
    <path d="M1605.52,159.28c7.65-7.27,16.24-13.53,25.51-18.57-7.64,7.27-16.24,13.52-25.51,18.57h0Z" style="fill: #fff;"/>
    <path d="M1492.89,34.06c10.19,2.74,20.02,6.8,29.15,12.08-10.19-2.73-20.01-6.81-29.15-12.08h0Z" style="fill: #fff;"/>
    <path d="M1377.52,156.28c7.65-7.27,16.24-13.53,25.51-18.57-7.64,7.27-16.24,13.52-25.51,18.57h0Z" style="fill: #fff;"/>
    <path d="M1394.67,190.53c9.17,5.22,17.66,11.62,25.17,19.03-9.18-5.21-17.65-11.62-25.17-19.03h0Z" style="fill: #fff;"/>
    <path d="M1450.93,199.18c9.23-5.11,19.12-9.01,29.36-11.56-9.23,5.12-19.13,9-29.36,11.56h0Z" style="fill: #fff;"/>
  </g>
</svg>