<?xml version="1.0" encoding="UTF-8"?>
<svg id="Layer_1" xmlns="http://www.w3.org/2000/svg" viewBox="0 0 1717.3 914.76">
  <path d="M3.97,115.37S28.46,32.54,104.27,33.93s78.14,25.75,78.14,25.75c0,0-15.16-77.96,38.49-55.68s40.71,53.68,40.71,53.68c0,0,26.35-71.08,56.09-41.15,29.74,29.93,15.16,82.13,15.16,82.13,0,0,171.45,87.7,28.58,111.37s-158.62-11.83-158.62-11.83c0,0,36.16,29.93-32.07,48.03-68.23,18.1-65.9-50.81-65.9-50.81,0,0-79.31,42.46-69.4-46.63,0,0-49.57,2.78-31.49-33.41Z" style="fill: #fff;"/>
  <path d="M1307.29,593.37s27.86-64.76,63.26-56.48c35.39,8.28,31.05,27.87,31.05,27.87,0,0,38.98-73.06,77.39-62.51s60.24,60.24,60.24,60.24c0,0,11.3-38.41,63.26-38.41s53.47,48.2,53.47,48.2c0,0,78.32,20.33,57.98,57.98s-38.41,33.89-38.41,33.89c0,0,67.02,38.41,27.86,55.73-39.16,17.32-94.88,18.07-105.43-33.13,0,0-64.76,105.43-119.73,51.96-54.97-53.47-46.69-73.05-46.69-73.05,0,0-26.36,72.29-78.32,36.15-51.96-36.15-33.13-55.73-33.13-55.73,0,0-29.37-3.77-26.36-30.12s13.55-22.59,13.55-22.59Z" style="fill: #fff;"/>
  <path d="M407.8,767.75s26-42,62-33,33,43,33,43c0,0,37-95,107-57s63,65,63,65c0,0,58,8,70,49s-132,39-132,39c0,0-62,101-95-14,0,0-166,97-154-5,0,0-65-56,46-87Z" style="fill: #fff;"/>
</svg>