<?xml version="1.0" encoding="UTF-8"?>
<svg id="Layer_1" xmlns="http://www.w3.org/2000/svg" viewBox="0 0 1920 4247.28">
  <polygon points="0 1453.44 239 643.28 310 556.28 345 405.28 539 376.28 590 256.28 761 218.28 822 160.28 1100 253.28 1300 256.28 1300 279.25 1397 308.28 1416 321.28 1471 369.28 1471 401.83 1522 414.28 1558 479.28 1619 553.28 1619 627.63 1810 898.28 1851 1082.28 1893 1634.28 1855 1811.28 1920 2034.09 1920 4247.28 0 4247.28 0 1453.44" style="fill: #ccc;"/>
  <polygon points="822 160.28 761 218.28 590 256.28 539 376.28 345 405.28 310 556.28 239 643.28 0 1438.73 411 616.28 483 510.28 652 444.28 655 341.28 822 292.46 822 160.28" style="fill: #b3b3b3;"/>
  <polygon points="320 1395.28 177 1777.28 225 1877.28 174 1997.28 174 2011.86 174 2043.38 188.22 2043.38 200 2123.28 220 2218.28 174 2301.29 337 2287.28 429 2029.28 532 1931.28 557.9 1848.29 586.55 1848.29 630 1791.28 664 1693.28 612 1605.28 635 1559.28 615 1499.28 595.15 1438.73 609 1395.28 730 1249.28 847 1046.28 925 808.28 865 756.28 822 745.24 775.69 799.5 652 974.28 658 1072.28 426 1321.28 360 1338.28 332 1390.28 320 1395.28" style="fill: #b3b3b3;"/>
  <polygon points="1343 447.28 1206 731.28 1183 831.28 1125 948.28 1142 1106.28 1085 1264.28 1042.19 1523.27 1160 1536.28 1065 1696.28 1137 1708.28 1185 1590.28 1192.6 1372.82 1254 1163.28 1320 1014.28 1288.64 799.5 1355 653.28 1429 570.28 1398 510.28 1389 424.28 1343 447.28" style="fill: #b3b3b3;"/>
  <polygon points="0 3132.34 587 2244.28 960 2404.46 1117 2450.28 1008 2782.28 1266 3012.28 1168 3161.28 1042 3436.28 1177 3602.28 1019 3783.28 1011 4038.28 973.42 4247.28 0 4247.28 0 3132.34" style="fill: #b3b3b3;"/>
  <polygon points="587 2244.28 633 2602.28 575 2682.28 618 2820.28 612 2974.28 589 3141.28 535 3172.28 432 3419.28 369 3550.28 246 3651.28 240 3734.28 142 3817.28 0 3906.07 0 3132.34 587 2244.28" style="fill: #999;"/>
  <polygon points="1842 1808.28 1429 2619.38 1415 2926.28 1512 2980.28 1441 3229.28 1610 3169.28 1681 2691.28 1641 2625.28 1756 2459.28 1779 2338.28 1842 2275.5 1842 2226.79 1827 2123.28 1870 2003.28 1857.86 1797.94 1842 1808.28" style="fill: #999;"/>
  <polygon points="1429 332.63 1202.79 745.24 1102 1103.28 1022 1160.28 996 1049.28 1019 888.28 1022 736.28 1085 696.28 1097 596.28 1191 527.28 1212.5 409.95 1289 364.28 1429 332.63" style="fill: #999;"/>
  <polygon points="822 745.24 698 977.28 633 1143.56 549.5 1229.53 443 1393.28 357 1407.28 316.5 1312.64 316.5 1206.61 429 1112.28 440.4 1066.28 524 948.28 609 934.28 612 842.28 718.37 746.45 822 745.24" style="fill: #999;"/>
  <polygon points="1810 898.28 1575 1576.28 1452 1883.28 1280 2009.28 1352 2181.28 1497.84 2087.28 1532 1820.28 1666.91 1708.28 1664 1553.28 1733 1490.28 1750 1387.28 1796 1264.28 1796 1201.28 1796 1103.28 1833.69 1004.61 1810 898.28" style="fill: #999;"/>
  <polygon points="1920 3524.94 1713 3783.28 1687 3986.28 1633 4006.28 1544 4089.28 1521 4167.28 1532.22 4247.28 1920 4247.28 1920 3524.94" style="fill: gray;"/>
  <g>
    <path d="M1283.26,137.61c2.33,4.7.87,8.72-2.31,12.35-4.53,5.18-6.96,11.28-7.95,17.99-1.25,8.44,2.93,15.67,11.24,19.23-2.56-8.32-.81-15.8,3.94-23.36,1.06,3.56,2.01,6.74,3.02,10.1,10.05-9.28,12.76-20.85,12.29-34.45,4.55,4.97,6.2,10.24,8.13,16.26,3.03-6.74,3.41-13.04,1.6-19.28-1.57-5.39,2.98-4.45,5.27-5.77,2.97-1.71,3.19,1.01,3.8,2.74,7.59,21.64,16.98,42.65,22.74,64.91,1.82,7.03,2.62,14.34,3.74,21.55.37,2.41,1.23,4.27,3.12,5.93,4.74,4.16,9.1,8.77,13.98,12.75,3.49,2.85,5,5.93,5.2,10.51.42,9.92,1.41,19.84,2.55,29.71.33,2.83-.94,4.78-1.96,6.96-1.61,3.46-3.74,6.72-5.06,10.28-1.83,4.92-6.4,5.85-10.25,7.88-1.77.93-2.76-.55-3.9-1.4-5.86-4.36-11.87-8.53-17.48-13.19-3.22-2.67-5.57-2.88-8.22.41-1.43,1.78-3.77,2.77-4.51,5.17,4.72,2.63,8.46,6.38,12.32,9.95-3.15,1.86-6.07,3.17-8.49,5.11-3.82,3.04-4.77.14-6.15-2.44-1.22-2.27-.72-5.8-4.49-6.24-5.21,4.87-10.57,9.58-15.54,14.67-1.88,1.92-3.62,3.15-5.98,1.87-9.02-4.91-14.71-.09-20.56,6.14-4.88,5.19,258.9,100.59,256.05,98.9-2.52-1.49-.27-3.72.5-5.23,1.41-2.75,1.63-7.83,7.17-4.74,1.6.89,2.21-.68,2.88-1.88,7.52-13.5,15.06-26.98,22.63-40.45,1.38-2.47,1.51-4.85.71-7.61-3.16-10.85-6.06-21.77-9.12-32.65-.55-1.97-.82-3.75.1-5.77,8.03-17.54,15.98-35.12,23.94-52.69.39-.86.54-2.23,1.88-1.77,8.95,3.04,14.92-3.97,22.2-6.52.92-.32,1.93-.82,2.53-1.54,1.06-1.29-.47-1.53-1.14-2.07-7.89-1.36-15.55-3.7-22.97-6.51-4.94-1.88-6.73-.62-8.82,3.79-10.35,21.84-21.01,43.52-31.63,65.23-1.4,2.86-1.68,5.48-.48,8.55,4.18,10.67,8.07,21.45,12.21,32.13,1.17,3.02,1.07,5.46-.59,8.42-4.45,7.95-8.43,16.16-12.59,24.27q-5.99,11.7-18.23,6.13c-2.71,1.62-5.56,3.05-8.1,4.91-1.89,1.39-2.98.93-4.66-.37-7.46-5.8-15.1-11.36-22.56-17.15-1.37-1.06-4.26-1.41-3.28-4.18.82-2.3,1.22-5.2,5.09-4.67,1.21.17,2.7-1.13,3.94-1.93,5.17-3.33,10.13-7.05,15.49-10.03,5.94-3.3,10.19-7.1,8.31-14.68-.22-.88-.23-2.25.76-2.72,1.47-.69,1.97.87,2.58,1.7,4.49,5.98,8.91,12.01,13.35,18.02,2.57-.71,5.1-1.56,7.7-2.08,3.57-.71,4.87-1.76,2.36-5.42-6.21-9.05-12.69-18-17.91-27.62-8.78-16.19-17.35-32.73-9.17-52.09,1.22-2.89,1.92-6.04,2.61-9.12,1.45-6.51,4.23-12.71,5.13-20.28-5.91,3.7-8.23,9.17-11.79,13.58-2.4,2.98-1.18,3.99,1.17,4.29-3.28-1.83-5.08.97-6.95,3.68-4.54,6.59-4.6,6.71-11.81,3.66-12.51-5.3-25.3-9.97-37.34-16.37-6.67-3.54-6.92-3.35-3.25-9.46,1.81-3,1.67-4.78-1.52-6.86-5.08-3.33-9.69-7.37-14.6-10.95-5.05-3.69-10.23-7.19-15.35-10.77-.31.36-.61.73-.92,1.09,3.62,3.83,7.15,7.75,10.9,11.45,2.14,2.12,2.85,4.07,1.55,7.04-3.58,8.2-6.97,16.5-10.25,24.83-6.5,16.55-12.9,33.15-19.26,49.76-.68,1.79-1.58,2.28-3.35,1.86-4.36-1.04-8.74-1.99-13.12-2.97-6.27,5.52-6.11,5.3-11.23,1.43-2.53-1.91-1.11-3.5-.46-5.14.69-1.76.31-4.99,3.67-4.15,3.32.83,3.44-1.42,4.02-3.45,4.09-14.24,8.2-28.47,12.27-42.71q2.5-8.74,10.62-5.07c.95-6.73,1.66-13.61,9.88-15.83.09-.02.04-.53.06-.76-11.36-3.85-22.64-7.88-34.26-10.83-1.21-.31-2.13-.83-2.65-2-3.36-7.56-6.68-15.13-10.13-22.64-.82-1.79-.39-3.2.55-4.66,4.99-7.75,9.91-15.54,14.98-23.25,7.45-11.34,15-22.61,23.3-35.1-18.95,12.54-36.78,24.27-55.87,34.89-5.35-16.04-10.25-32.09-16.13-47.77-2.77-7.38-4.04-13.69,2.17-19.69.43-.41.47-1.23.7-1.85-.2-.34-.39-.68-.59-1.02-10.64,4.96-21.09,10.39-31.97,14.73-7.93,3.16-12.33,7.35-9.64,16.3.06.21-.26.54-.69,1.34-1.31-1.35-2.57-2.53-3.69-3.84-2.97-3.47-5.63-3.77-7.95.63ZM1377.13,358.25h.01c3.78,5.17,7.57,10.34,11.35,15.52.13.32.26.63.39.95-.33-.21-.66-.41-.99-.62-12.49-8.64-23.08-19.77-36.17-27.75,2.83,6.68,7.3,12.31,9.89,18.94.24.24,1.17.39.11.8-.02-.27-.04-.55-.06-.82-1.58.08-2.32-1.15-3.2-2.11-4.95-5.38-9.62-11.05-14.87-16.12-5.48-5.29-8.18-11.25-7.51-18.93.6-6.85-.71-13.8.76-21.43,28.86,25.35,57.18,50.23,84.54,76.22-5.61-2.66-10.85-5.82-16.17-8.82-9.36-5.29-18.26-11.39-28.09-15.83ZM1399.8,333.12c1.52-2.41.19-7.71,6-6.23,1,.25,1.2-.9,1.52-1.64.93-2.13,1.86-4.26,2.8-6.39,6.14-13.99,12.28-27.99,18.45-41.98.87-1.97,1.57-3.9,4.64-2.33,14.65,7.45,29.39,14.73,44.14,21.98,2.81,1.38,4.13,3.2,4.17,6.47.23,16.16,3.1,31.69,11.81,45.68,1.41,2.26,1.14,3.74-1.35,5.14-5.71,3.21-10.84,7.13-13.87,13.19-.85,1.69-2.08,2.08-3.61,1.1-3.36-2.15-5.98-.75-8.35,1.67-2.26,2.31-4.28,2.38-6.69.07-4.11-3.94-8.91-6.11-14.84-5.41-2.78.33-5.63.04-8.44.09-2.2.04-4.07-.41-5.93-1.85-9.3-7.22-18.68-14.33-28.13-21.35-2.96-2.2-5.12-4.35-2.33-8.19Z" style="fill: #1a282a;"/>
    <path d="M1283.26,137.61c2.32-4.4,4.98-4.09,7.95-.63,1.12,1.31,2.39,2.49,3.69,3.84.43-.81.76-1.13.69-1.34-2.69-8.95,1.71-13.14,9.64-16.3,10.89-4.34,21.34-9.77,31.97-14.73.48-.18.97-1.03,1.43-.3.35.57-.19,1.1-.84,1.31-.22.63-.27,1.44-.7,1.85-6.21,6-4.94,12.31-2.17,19.69,5.88,15.68,10.78,31.73,16.13,47.77,19.1-10.62,36.92-22.35,55.87-34.89-8.3,12.49-15.84,23.76-23.3,35.1-5.06,7.7-9.99,15.49-14.98,23.25-.94,1.46-1.37,2.87-.55,4.66,3.45,7.52,6.77,15.09,10.13,22.64.52,1.17,1.44,1.69,2.65,2,11.61,2.95,22.89,6.98,34.26,10.83-.01.23.03.73-.06.76-8.21,2.22-8.93,9.09-9.88,15.83-1.44,9.82-3.14,19.61-4.23,29.47-1.12,10.14-5.13,18.69-12.24,25.93-1.02,1.03-1.63,2.46-2.43,3.71,4.37.99,8.75,1.94,13.12,2.97,1.77.42,2.67-.07,3.35-1.86,6.36-16.61,12.76-33.2,19.26-49.76,3.27-8.33,6.67-16.63,10.25-24.83,1.3-2.97.6-4.92-1.55-7.04-3.75-3.7-7.28-7.62-10.9-11.45.31-.36.61-.73.92-1.09,5.12,3.58,10.3,7.09,15.35,10.77,4.92,3.59,9.52,7.63,14.6,10.95,3.18,2.08,3.32,3.86,1.52,6.86-3.67,6.11-3.42,5.91,3.25,9.46,12.05,6.4,24.83,11.08,37.34,16.37,7.21,3.05,7.27,2.94,11.81-3.66,1.87-2.72,3.67-5.52,6.95-3.68-2.35-.3-3.56-1.31-1.17-4.29,3.55-4.41,5.87-9.88,11.79-13.58-.9,7.57-3.68,13.77-5.13,20.28-.69,3.08-1.38,6.23-2.61,9.12-8.18,19.36.39,35.9,9.17,52.09,5.22,9.62,11.7,18.57,17.91,27.62,2.51,3.66,1.22,4.71-2.36,5.42-2.6.51-5.14,1.37-7.7,2.08-3.65,10.37-7.29,20.74-10.94,31.1q12.24,5.56,18.23-6.13c4.16-8.11,8.14-16.32,12.59-24.27,1.66-2.96,1.76-5.4.59-8.42-4.15-10.68-8.03-21.46-12.21-32.13-1.2-3.07-.92-5.69.48-8.55,10.61-21.71,21.28-43.4,31.63-65.23,2.09-4.41,3.88-5.66,8.82-3.79,7.41,2.82,15.08,5.16,22.97,6.51-3.12-6.62-7.77-12.25-11.84-18.25-8.47-12.49-17.18-24.83-25.71-37.28-3.04-4.43-7.23-6.99-12.07-9.16-13.9-6.26-27.62-12.91-41.41-19.43-5.38-2.54-11.07-4.46-15.86-8.15-3.95-1.74-7.8-3.77-11.86-5.16-8.36-2.88-14.79-7.72-18.88-15.78-1.46-2.88-4.09-5.21-6.36-7.63-6.34-6.76-14.06-10.3-23.48-10.2-10.95.11-21.91-.24-32.87-.09-3.11.04-5.28-.93-7.5-2.93-16.09-14.42-32.21-28.8-48.47-43.03-3-2.63-2.91-4.3.39-6.15,10.35-5.78,9.17-16.98,12.87-26.48-12.34.4-20.98,6.4-28.27,14.95,1.3,3.69,3.25,3.47,5.82,1.13,4.82-4.4,9.59-8.94,16.64-11.18-1.62,5.94-2.21,11.55-7.27,15.19-2.81,2.02-5.59,4.15-8.03,6.58-1.97,1.95-3.16,1.51-4.76-.27-2.75-3.07-5.76-5.91-7.9-9.97-1.83,2.39-4.21,2.27-6.73,2.33-3.56.08-7.11-1.37-10.67-.1.63,3,4.15,3.11,5.55,5.48-3.14.79-6.63-.75-9.15,2.76-3.44,4.79-1.68,8.75,1.03,12.75,1.28,1.88,2.4,3.51.74,5.79-2.83,3.88-5.71,7.75-8.18,11.86-2.66,4.42-4.56,3.21-7.17-.08-6.01-7.55-6.01-7.38-.34-15.1,5.68-7.75,11.11-15.68,16.65-23.54-6.65-1.95-13.54-1.83-20.35-2.43-.12,1.3-.59,2.69-.3,3.89,2.08,8.71-1.77,14.86-7.69,20.82-5.54,5.58-11.1,11.26-15.55,17.85,3.38,1.38,7.1.54,11.38,1.72-5.76,3.33-9.93,7.43-12.39,13.04.33,2.83,1.42,5,4.64,5.29,4.58-2.12,9.18-4.14,15-3.7-4.34,3.29-8.14,6.22-13.33,6.16-.82,3.46,1.97,5.73,2.98,8.57.58,1.63,2.3.31,3.5.1,2.41-.42,4.1-2.84,6.8-2.49ZM1313.86,86.75c-1.44-.41-2.94-.67-4.3-1.27-2.24-.97-3.68-2.68-2.25-5.11,1.45-2.45,3.72-3.33,6.32-1.54.78.53,1.27,1.48,1.89,2.23.48.1.96.33,1.43.3,3.05-.22,7.08-.02,8.12,2.2,1.09,2.33-2.8,4.26-4.7,6.98-.5-4.93-4.19-2.92-6.51-3.8Z" style="fill: #ac9787;"/>
    <path d="M1288.23,66.36c6.81.6,13.7.48,20.35,2.43.29-.04.58-.01.86.08,3.56-1.27,7.1.17,10.67.1,2.52-.06,4.9.06,6.73-2.33,2.14,4.06,5.15,6.9,7.9,9.97,1.6,1.79,2.8,2.23,4.76.27,2.45-2.43,5.23-4.56,8.03-6.58,5.06-3.64,5.65-9.25,7.27-15.19-7.05,2.24-11.81,6.78-16.64,11.18-2.56,2.34-4.52,2.56-5.82-1.13-4.12-1.81-5.51-4.03-2.95-8.65,3.7-6.66,6.77-13.68,11.45-19.76,20.36-26.47,59.25-22.05,73.15,8.28.32.7.65,1.4,1.31,2.84,2.25-8.11.52-14.67-3.92-20.35-10.41-13.31-24.48-19.38-41.17-19.8-1.98-.05-3.8-.15-5.7-1.1-24.45-12.23-45.61-7.54-62.51,14.14-10.4,13.35-14.67,28.74-13.8,45.59ZM1345.39,11.74c-7.26,3.52-13.97,7.32-19.78,12.53-5.76,5.15-9.97,11.55-14.1,18.01,4.29-18.54,19.79-32.46,33.89-30.53Z" style="fill: #1a282a;"/>
    <path d="M1347.74,76.69c-3.3,1.85-3.39,3.52-.39,6.15,16.26,14.23,32.38,28.61,48.47,43.03,2.23,2,4.4,2.97,7.5,2.93,10.95-.16,21.91.19,32.87.09,9.42-.09,17.14,3.44,23.48,10.2,2.27,2.42,4.9,4.75,6.36,7.63,4.09,8.06,10.52,12.9,18.88,15.78,4.07,1.4,7.92,3.42,11.86,5.16-10.04-14.82-19.89-29.75-32.69-42.49-7.13-7.1-15.97-7.4-24.97-7.48-10.26-.1-20.52-.02-30.78.15-2.28.04-4.05-.47-5.92-1.81-18.06-12.89-36.19-25.66-54.29-38.49-.22-.15-.25-.56-.38-.85Z" style="fill: #1a282a;"/>
    <path d="M1315.42,301.29c3.77.44,3.27,3.97,4.49,6.24,1.38,2.57,2.34,5.48,6.15,2.44,2.43-1.94,5.35-3.25,8.49-5.11-3.86-3.57-7.6-7.32-12.32-9.95-2.86,1.5-5.05,3.72-6.82,6.38Z" style="fill: #ac9787;"/>
    <path d="M1263.68,123.68c2.46-5.6,6.63-9.71,12.39-13.04-4.28-1.19-8-.34-11.38-1.72-2.07.36-2.45,1.71-2.4,3.61.09,3.77.01,7.54,1.39,11.14Z" style="fill: #1a282a;"/>
    <path d="M1269.98,131.43c5.19.07,9-2.86,13.33-6.16-5.82-.44-10.42,1.58-15,3.7.56.82,1.11,1.64,1.67,2.46Z" style="fill: #1a282a;"/>
    <path d="M1399.8,333.12c-2.79,3.84-.63,5.99,2.33,8.19,9.44,7.03,18.83,14.14,28.13,21.35,1.86,1.44,3.73,1.89,5.93,1.85,2.81-.05,5.66.24,8.44-.09,5.93-.7,10.73,1.47,14.84,5.41,2.4,2.31,4.42,2.24,6.69-.07,2.36-2.41,4.99-3.82,8.35-1.67,1.53.98,2.76.58,3.61-1.1,3.03-6.06,8.17-9.98,13.87-13.19,2.49-1.4,2.76-2.87,1.35-5.14-8.71-13.98-11.58-29.52-11.81-45.68-.05-3.27-1.37-5.09-4.17-6.47-14.75-7.25-29.49-14.53-44.14-21.98-3.08-1.56-3.77.36-4.64,2.33-6.17,13.98-12.3,27.98-18.45,41.98-.93,2.13-1.87,4.26-2.8,6.39-.32.74-.52,1.89-1.52,1.64-5.81-1.47-4.48,3.82-6,6.23Z" style="fill: #fefefe;"/>
    <path d="M1361.63,365.29c-2.59-6.63-7.06-12.26-9.89-18.94,13.09,7.98,23.68,19.12,36.17,27.75.2-.11.4-.22.6-.33-3.78-5.18-7.57-10.35-11.35-15.53-.35-.27-.7-.54-1.04-.81.15-.05.31-.16.44-.13.5.11.9.32.59.95,9.83,4.44,18.73,10.55,28.09,15.83,5.32,3.01,10.56,6.17,16.17,8.82-27.37-26-55.68-50.88-84.54-76.22-1.48,7.63-.16,14.59-.76,21.43-.67,7.68,2.03,13.63,7.51,18.93,5.25,5.07,9.93,10.73,14.87,16.12.88.96,1.63,2.18,3.2,2.11l-.05.02Z" style="fill: #ac9787;"/>
    <path d="M1520.58,401.93c3.65-10.37,7.29-20.74,10.94-31.1-4.44-6.01-8.86-12.04-13.35-18.02-.62-.82-1.12-2.39-2.58-1.7-.99.47-.98,1.84-.76,2.72,1.88,7.58-2.37,11.38-8.31,14.68-5.36,2.98-10.32,6.7-15.49,10.03-1.25.8-2.74,2.1-3.94,1.93-3.87-.53-4.27,2.37-5.09,4.67-.99,2.77,1.91,3.11,3.28,4.18,7.46,5.79,15.11,11.35,22.56,17.15,1.67,1.3,2.77,1.76,4.66.37,2.54-1.86,5.38-3.29,8.1-4.91Z" style="fill: #fefefe;"/>
    <path d="M1386.33,318.07c.8-1.25,1.41-2.68,2.43-3.71,7.1-7.23,11.11-15.79,12.24-25.93,1.09-9.86,2.8-19.65,4.23-29.47q-8.14-3.68-10.62,5.07c-4.08,14.24-8.19,28.48-12.27,42.71-.58,2.03-.7,4.28-4.02,3.45-3.36-.84-2.98,2.39-3.67,4.15-.64,1.64-2.06,3.23.46,5.14,5.13,3.88,4.96,4.1,11.23-1.43Z" style="fill: #fefefe;"/>
    <path d="M1361.67,365.27c.02.27.04.55.06.82,1.06-.41.13-.56-.11-.8,0,0,.05-.02.05-.02Z" style="fill: #ac9787;"/>
    <path d="M1387.9,374.1c.33.21.66.41.99.62-.13-.32-.26-.63-.39-.95-.2.11-.4.22-.6.33Z" style="fill: #ac9787;"/>
    <path d="M1309.44,68.87c-.28-.09-.57-.12-.86-.08-5.54,7.85-10.97,15.79-16.65,23.54-5.66,7.72-5.67,7.56.34,15.1,2.61,3.28,4.51,4.5,7.17.08,2.47-4.11,5.35-7.98,8.18-11.86,1.66-2.28.54-3.91-.74-5.79-2.72-4-4.47-7.97-1.03-12.75,2.52-3.5,6-1.97,9.15-2.76-1.41-2.36-4.92-2.48-5.55-5.48Z" style="fill: #fefefe;"/>
    <path d="M1313.86,86.75c2.33.87,6.02-1.13,6.51,3.8,1.9-2.73,5.79-4.65,4.7-6.98-1.04-2.22-5.08-2.42-8.12-2.2-.47.03-.95-.19-1.43-.3-.56,1.89-1.11,3.79-1.67,5.68Z" style="fill: #fefefe;"/>
    <path d="M1313.86,86.75c.56-1.89,1.11-3.79,1.67-5.68-.62-.75-1.12-1.7-1.89-2.23-2.6-1.79-4.88-.91-6.32,1.54-1.43,2.43.01,4.13,2.25,5.11,1.36.59,2.86.86,4.3,1.27Z" style="fill: #1a282a;"/>
    <path d="M1337.8,109.47c.65-.21,1.19-.75.84-1.31-.46-.73-.96.12-1.43.3.2.33.39.67.59,1.01Z" style="fill: #1a282a;"/>
    <path d="M1345.39,11.74c-14.1-1.92-29.6,11.99-33.89,30.53,4.13-6.46,8.34-12.86,14.1-18.01,5.82-5.2,12.53-9.01,19.78-12.53Z" style="fill: #fefefe;"/>
    <path d="M1377.13,358.25c.31-.63-.09-.84-.59-.95-.13-.03-.29.08-.44.13.35.27.7.54,1.04.81,0,0-.01,0-.01,0Z" style="fill: #1a282a;"/>
  </g>
</svg>