<?xml version="1.0" encoding="UTF-8"?>
<svg id="Layer_1" data-name="Layer 1" xmlns="http://www.w3.org/2000/svg" viewBox="0 0 200.34 154.64">
  <defs>
    <style>
      .cls-1 {
        fill: #f5d7c7;
      }

      .cls-2 {
        fill: #5da366;
      }
    </style>
  </defs>
  <path class="cls-1" d="M29.84,38.35c-4.11-7.82-5.85-17.71-1.42-25.35,1.17-2.02,2.76-3.83,4.78-5.01,1.9-1.11,4.1-1.6,6.28-1.83,11.55-1.22,22.99,4.88,30.61,13.65,7.61,8.77,11.91,19.92,15.05,31.11,1.59-13.17,4.68-26.69,12.88-37.11C106.23,3.38,120.69-3.07,133.14,1.48c5.54,2.02,10.41,6.26,12.43,11.79,1.31,3.57,1.4,7.48.99,11.26-1.96,17.79-15.99,33.61-33.43,37.68,12.77.32,25.01,5.68,35.4,13.12,5.49,3.93,10.68,8.61,13.74,14.63,3.06,6.02,3.65,13.62.17,19.41-4.82,8.01-15.63,10.19-24.91,9.02-14.65-1.84-28.34-10.28-36.57-22.55,3.63,11.34,3.84,23.76.6,35.22-2.36,8.35-6.88,16.57-14.4,20.91-7.52,4.34-18.39,3.5-23.51-3.51-1.83-2.5-2.8-5.53-3.54-8.54-3.89-15.94-1.84-32.78,2.2-48.68-2.41,7.33-9.34,12.17-16.25,15.61-10.04,5.01-22.08,8.19-32.35,3.69-4.91-2.15-9.05-5.99-11.57-10.72-1.76-3.31-2.73-7.21-1.81-10.84.56-2.19,1.74-6.61,3.15-8.37,6.04-7.52,11.01-10.97,20.28-15.05,13.4-5.9,17.07-4.23,25.85-6.57-2.41-3.42-7.54-5.53-10.65-8.52-3.67-3.52-6.79-7.63-9.16-12.13Z"/>
  <path class="cls-2" d="M167.08,53.75c-12.26,1.12-23.99,5.15-35.59,9.15,3.6,1.19,6.63,3.67,9.79,5.79,6.96,4.66,14.97,7.77,23.21,8.48,8.24.71,16.69-1.05,23.64-5.41,2.21-1.38,4.24-3.01,6.25-4.65,1.46-1.19,4.73-2.9,5.66-4.5,1.86-3.21-5.63-5.27-8.19-6.17-7.95-2.79-16.51-3.45-24.78-2.69Z"/>
  <path class="cls-2" d="M155.91,51.97c-7.68,3.76-16.19,5.89-24.62,7.98,1.65-1.86,2.47-4.17,3.5-6.34,2.27-4.78,5.78-9.15,10.36-12.41,4.59-3.26,10.27-5.36,16.09-5.64,1.85-.09,3.69,0,5.52.11,1.33.08,3.93-.22,5.11.25,2.36.95-1.25,4.62-2.4,5.97-3.59,4.19-8.39,7.54-13.57,10.08Z"/>
  <path class="cls-2" d="M35.82,122.47c5.72-6.36,12.82-11.51,19.85-16.6-.84,2.34-.73,4.79-.88,7.19-.32,5.28-1.94,10.65-4.98,15.38-3.04,4.73-7.52,8.81-12.81,11.24-1.68.77-3.42,1.37-5.17,1.96-1.26.42-3.57,1.68-4.84,1.68-2.55,0-.57-4.75,0-6.43,1.77-5.23,4.96-10.13,8.82-14.41Z"/>
</svg>